<?xml version="1.0" standalone="no"?><!DOCTYPE svg PUBLIC "-//W3C//DTD SVG 1.1//EN" "http://www.w3.org/Graphics/SVG/1.1/DTD/svg11.dtd"><svg t="1678093561359" class="icon" viewBox="0 0 1024 1024" version="1.1" xmlns="http://www.w3.org/2000/svg" p-id="4710" xmlns:xlink="http://www.w3.org/1999/xlink" width="200" height="200"><path d="M928 589.76v211.52c0 70.72-57.28 128-128 128h-298.88c-33.92 0-66.56-13.44-90.56-37.44l-227.84-227.84a77.312 77.312 0 0 1 0-109.44 103.904 103.904 0 0 1 146.56 0L384 609.28V177.28a80 80 0 0 1 88.32-79.68c41.6 4.16 71.68 42.24 71.68 84.16v235.52l277.12 46.08c61.76 10.24 106.88 63.68 106.88 126.4z" fill="#EDF6FF" p-id="4711"></path><path d="M820.8 463.36L544 417.28V181.76c0-6.4-0.96-12.8-2.24-19.2-1.92-0.32-3.52-0.96-5.44-0.96A80 80 0 0 0 448 241.28V611.2c0 56.64-68.48 85.44-108.8 45.76l-45.12-44.48s-21.44-18.88-47.36 6.08c-15.36 14.72-22.72 34.88-22.72 54.72s7.68 39.68 22.72 54.72l163.84 163.84c24 24 56.64 37.44 90.24 37.44H800c70.72 0 128-57.28 128-128v-211.52c0-62.72-45.44-116.16-107.2-126.4z" fill="#84B5FF" p-id="4712"></path><path d="M800 960h-298.88a160.32 160.32 0 0 1-113.28-46.72L160 685.12c-20.48-20.48-32-48-32-77.12s11.2-56.64 32-77.12a135.872 135.872 0 0 1 192 0V176c0-31.68 13.44-61.76 36.8-83.2 23.36-21.12 55.04-31.68 86.72-28.48C531.84 70.4 576 121.28 576 180.48V256c0 17.6-14.4 32-32 32s-32-14.4-32-32V180.48c0-26.88-18.88-49.92-42.88-52.16-13.76-1.6-27.2 2.88-37.12 12.16-10.24 9.28-16 21.76-16 35.52V608c0 12.8-7.68 24.64-19.84 29.44-11.84 5.12-25.6 2.24-34.88-7.04L306.88 576c-28.16-28.16-73.6-28.16-101.76 0-8.32 8.64-13.12 19.84-13.12 32s4.8 23.36 13.12 32l227.84 227.84c17.92 17.92 42.56 28.16 67.84 28.16H800c52.8 0 96-43.2 96-96v-211.52c0-47.04-33.6-87.04-80.32-94.72l-277.12-46.08A32 32 0 0 1 512 416v-32c0-17.6 14.4-32 32-32s32 14.4 32 32v4.8l250.24 41.6c77.44 12.8 133.76 79.36 133.76 157.76V800c0 88.32-71.68 160-160 160zM160 352c-17.6 0-32-14.4-32-32V192c0-17.6 14.4-32 32-32s32 14.4 32 32v128c0 17.6-14.4 32-32 32z" fill="#2C67CC" p-id="4713"></path><path d="M160 352c-8.32 0-16.32-3.2-22.72-9.28l-64-64A31.872 31.872 0 1 1 118.4 233.6L160 274.88 201.28 233.6A31.872 31.872 0 1 1 246.4 278.72l-64 64c-6.08 6.08-14.08 9.28-22.4 9.28z" fill="#2C67CC" p-id="4714"></path></svg>